<mxfile host="65bd71144e">
    <diagram name="Page-1" id="Xd9cVc7myS7vEEDZ-aDd">
        <mxGraphModel dx="825" dy="563" grid="1" gridSize="10" guides="1" tooltips="1" connect="1" arrows="1" fold="1" page="1" pageScale="1" pageWidth="827" pageHeight="1169" math="0" shadow="0">
            <root>
                <mxCell id="0"/>
                <mxCell id="1" parent="0"/>
                <mxCell id="63434HRSh4-HGVMlNltW-1" value="ID" style="ellipse;whiteSpace=wrap;html=1;align=center;fontStyle=4;" parent="1" vertex="1">
                    <mxGeometry x="210" y="325" width="100" height="40" as="geometry"/>
                </mxCell>
                <mxCell id="63434HRSh4-HGVMlNltW-2" value="Users" style="whiteSpace=wrap;html=1;align=center;" parent="1" vertex="1">
                    <mxGeometry x="357" y="360" width="100" height="40" as="geometry"/>
                </mxCell>
                <mxCell id="63434HRSh4-HGVMlNltW-5" value="UserName" style="ellipse;whiteSpace=wrap;html=1;align=center;" parent="1" vertex="1">
                    <mxGeometry x="321" y="230" width="100" height="40" as="geometry"/>
                </mxCell>
                <mxCell id="63434HRSh4-HGVMlNltW-8" value="Password" style="ellipse;whiteSpace=wrap;html=1;align=center;" parent="1" vertex="1">
                    <mxGeometry x="421" y="240" width="100" height="40" as="geometry"/>
                </mxCell>
                <mxCell id="63434HRSh4-HGVMlNltW-9" value="Email" style="ellipse;whiteSpace=wrap;html=1;align=center;" parent="1" vertex="1">
                    <mxGeometry x="254" y="270" width="100" height="40" as="geometry"/>
                </mxCell>
                <mxCell id="63434HRSh4-HGVMlNltW-14" value="Diary" style="whiteSpace=wrap;html=1;align=center;" parent="1" vertex="1">
                    <mxGeometry x="357" y="650" width="100" height="40" as="geometry"/>
                </mxCell>
                <mxCell id="63434HRSh4-HGVMlNltW-22" value="Feeling" style="ellipse;whiteSpace=wrap;html=1;align=center;" parent="1" vertex="1">
                    <mxGeometry x="520" y="610" width="100" height="40" as="geometry"/>
                </mxCell>
                <mxCell id="oerCxMAeKZyAwaHV0BJi-11" value="ID" style="ellipse;whiteSpace=wrap;html=1;align=center;fontStyle=4;" parent="1" vertex="1">
                    <mxGeometry x="210" y="610" width="100" height="40" as="geometry"/>
                </mxCell>
                <mxCell id="oerCxMAeKZyAwaHV0BJi-16" value="Story" style="ellipse;whiteSpace=wrap;html=1;align=center;" parent="1" vertex="1">
                    <mxGeometry x="357" y="740" width="100" height="40" as="geometry"/>
                </mxCell>
                <mxCell id="oerCxMAeKZyAwaHV0BJi-20" value="ShareStatus" style="ellipse;whiteSpace=wrap;html=1;align=center;" parent="1" vertex="1">
                    <mxGeometry x="487" y="730" width="100" height="40" as="geometry"/>
                </mxCell>
                <mxCell id="oerCxMAeKZyAwaHV0BJi-22" value="CloseFriend" style="whiteSpace=wrap;html=1;align=center;" parent="1" vertex="1">
                    <mxGeometry x="610" y="300" width="100" height="40" as="geometry"/>
                </mxCell>
                <mxCell id="oerCxMAeKZyAwaHV0BJi-47" value="Write" style="shape=rhombus;perimeter=rhombusPerimeter;whiteSpace=wrap;html=1;align=center;" parent="1" vertex="1">
                    <mxGeometry x="373.37" y="490" width="67.25" height="40" as="geometry"/>
                </mxCell>
                <mxCell id="oerCxMAeKZyAwaHV0BJi-61" value="Have" style="shape=rhombus;perimeter=rhombusPerimeter;whiteSpace=wrap;html=1;align=center;" parent="1" vertex="1">
                    <mxGeometry x="516" y="340" width="71" height="40" as="geometry"/>
                </mxCell>
                <mxCell id="oerCxMAeKZyAwaHV0BJi-70" value="" style="endArrow=none;html=1;rounded=0;exitX=0.5;exitY=0;exitDx=0;exitDy=0;" parent="1" source="oerCxMAeKZyAwaHV0BJi-47" edge="1">
                    <mxGeometry relative="1" as="geometry">
                        <mxPoint x="406.63" y="510" as="sourcePoint"/>
                        <mxPoint x="407" y="400" as="targetPoint"/>
                    </mxGeometry>
                </mxCell>
                <mxCell id="oerCxMAeKZyAwaHV0BJi-72" value="1" style="resizable=0;html=1;whiteSpace=wrap;align=right;verticalAlign=bottom;" parent="oerCxMAeKZyAwaHV0BJi-70" connectable="0" vertex="1">
                    <mxGeometry x="1" relative="1" as="geometry">
                        <mxPoint y="20" as="offset"/>
                    </mxGeometry>
                </mxCell>
                <mxCell id="oerCxMAeKZyAwaHV0BJi-79" value="N" style="resizable=0;html=1;whiteSpace=wrap;align=left;verticalAlign=bottom;" parent="1" connectable="0" vertex="1">
                    <mxGeometry x="407" y="650" as="geometry"/>
                </mxCell>
                <mxCell id="4LS49WLjIBpn6oFqcIrz-9" value="" style="endArrow=none;html=1;rounded=0;exitX=0.5;exitY=1;exitDx=0;exitDy=0;entryX=1;entryY=0.25;entryDx=0;entryDy=0;" parent="1" source="X5DR2xTNKRH_0ik1zWmi-29" target="oerCxMAeKZyAwaHV0BJi-22" edge="1">
                    <mxGeometry relative="1" as="geometry">
                        <mxPoint x="190" y="405" as="sourcePoint"/>
                        <mxPoint x="30" y="355" as="targetPoint"/>
                    </mxGeometry>
                </mxCell>
                <mxCell id="4LS49WLjIBpn6oFqcIrz-11" value="" style="endArrow=none;html=1;rounded=0;exitX=0.5;exitY=0;exitDx=0;exitDy=0;entryX=1;entryY=0.75;entryDx=0;entryDy=0;" parent="1" source="X5DR2xTNKRH_0ik1zWmi-28" target="oerCxMAeKZyAwaHV0BJi-22" edge="1">
                    <mxGeometry relative="1" as="geometry">
                        <mxPoint x="70" y="405" as="sourcePoint"/>
                        <mxPoint x="130" y="365" as="targetPoint"/>
                    </mxGeometry>
                </mxCell>
                <mxCell id="4LS49WLjIBpn6oFqcIrz-12" value="" style="endArrow=none;html=1;rounded=0;exitX=1;exitY=0.5;exitDx=0;exitDy=0;entryX=0;entryY=0;entryDx=0;entryDy=0;" parent="1" source="oerCxMAeKZyAwaHV0BJi-11" target="63434HRSh4-HGVMlNltW-14" edge="1">
                    <mxGeometry relative="1" as="geometry">
                        <mxPoint x="240" y="530" as="sourcePoint"/>
                        <mxPoint x="170" y="480" as="targetPoint"/>
                    </mxGeometry>
                </mxCell>
                <mxCell id="4LS49WLjIBpn6oFqcIrz-13" value="" style="endArrow=none;html=1;rounded=0;exitX=1;exitY=0;exitDx=0;exitDy=0;entryX=0;entryY=0.5;entryDx=0;entryDy=0;exitPerimeter=0;" parent="1" source="63434HRSh4-HGVMlNltW-14" target="63434HRSh4-HGVMlNltW-22" edge="1">
                    <mxGeometry relative="1" as="geometry">
                        <mxPoint x="307" y="680" as="sourcePoint"/>
                        <mxPoint x="367" y="680" as="targetPoint"/>
                    </mxGeometry>
                </mxCell>
                <mxCell id="4LS49WLjIBpn6oFqcIrz-14" value="" style="endArrow=none;html=1;rounded=0;exitX=1;exitY=1;exitDx=0;exitDy=0;entryX=0.578;entryY=0.028;entryDx=0;entryDy=0;entryPerimeter=0;" parent="1" source="63434HRSh4-HGVMlNltW-14" target="oerCxMAeKZyAwaHV0BJi-20" edge="1">
                    <mxGeometry relative="1" as="geometry">
                        <mxPoint x="467" y="680" as="sourcePoint"/>
                        <mxPoint x="531" y="680" as="targetPoint"/>
                    </mxGeometry>
                </mxCell>
                <mxCell id="4LS49WLjIBpn6oFqcIrz-15" value="" style="endArrow=none;html=1;rounded=0;exitX=0;exitY=1;exitDx=0;exitDy=0;entryX=1;entryY=0;entryDx=0;entryDy=0;" parent="1" source="63434HRSh4-HGVMlNltW-14" target="X5DR2xTNKRH_0ik1zWmi-22" edge="1">
                    <mxGeometry relative="1" as="geometry">
                        <mxPoint x="467" y="700" as="sourcePoint"/>
                        <mxPoint x="284" y="730" as="targetPoint"/>
                    </mxGeometry>
                </mxCell>
                <mxCell id="4LS49WLjIBpn6oFqcIrz-16" value="" style="endArrow=none;html=1;rounded=0;exitX=0.5;exitY=1;exitDx=0;exitDy=0;entryX=0.5;entryY=0;entryDx=0;entryDy=0;" parent="1" source="63434HRSh4-HGVMlNltW-14" target="oerCxMAeKZyAwaHV0BJi-16" edge="1">
                    <mxGeometry relative="1" as="geometry">
                        <mxPoint x="467" y="700" as="sourcePoint"/>
                        <mxPoint x="555" y="741" as="targetPoint"/>
                    </mxGeometry>
                </mxCell>
                <mxCell id="4LS49WLjIBpn6oFqcIrz-17" value="" style="endArrow=none;html=1;rounded=0;entryX=0;entryY=0.5;entryDx=0;entryDy=0;exitX=1;exitY=0.5;exitDx=0;exitDy=0;" parent="1" source="63434HRSh4-HGVMlNltW-1" target="63434HRSh4-HGVMlNltW-2" edge="1">
                    <mxGeometry relative="1" as="geometry">
                        <mxPoint x="170" y="180" as="sourcePoint"/>
                        <mxPoint x="227" y="180" as="targetPoint"/>
                    </mxGeometry>
                </mxCell>
                <mxCell id="4LS49WLjIBpn6oFqcIrz-18" value="" style="endArrow=none;html=1;rounded=0;entryX=0;entryY=0;entryDx=0;entryDy=0;exitX=0.5;exitY=1;exitDx=0;exitDy=0;" parent="1" source="63434HRSh4-HGVMlNltW-9" target="63434HRSh4-HGVMlNltW-2" edge="1">
                    <mxGeometry relative="1" as="geometry">
                        <mxPoint x="307" y="390" as="sourcePoint"/>
                        <mxPoint x="367" y="390" as="targetPoint"/>
                    </mxGeometry>
                </mxCell>
                <mxCell id="4LS49WLjIBpn6oFqcIrz-19" value="" style="endArrow=none;html=1;rounded=0;entryX=0.25;entryY=0;entryDx=0;entryDy=0;exitX=0.5;exitY=1;exitDx=0;exitDy=0;" parent="1" source="63434HRSh4-HGVMlNltW-5" target="63434HRSh4-HGVMlNltW-2" edge="1">
                    <mxGeometry relative="1" as="geometry">
                        <mxPoint x="294" y="350" as="sourcePoint"/>
                        <mxPoint x="367" y="370" as="targetPoint"/>
                    </mxGeometry>
                </mxCell>
                <mxCell id="4LS49WLjIBpn6oFqcIrz-20" value="" style="endArrow=none;html=1;rounded=0;entryX=0.75;entryY=0;entryDx=0;entryDy=0;exitX=0.5;exitY=1;exitDx=0;exitDy=0;" parent="1" source="63434HRSh4-HGVMlNltW-8" target="63434HRSh4-HGVMlNltW-2" edge="1">
                    <mxGeometry relative="1" as="geometry">
                        <mxPoint x="304" y="360" as="sourcePoint"/>
                        <mxPoint x="377" y="380" as="targetPoint"/>
                    </mxGeometry>
                </mxCell>
                <mxCell id="hj89SDTMaddYJusxgrUl-4" value="" style="endArrow=none;html=1;rounded=0;exitX=0.5;exitY=0;exitDx=0;exitDy=0;entryX=0.5;entryY=1;entryDx=0;entryDy=0;" parent="1" source="63434HRSh4-HGVMlNltW-14" target="oerCxMAeKZyAwaHV0BJi-47" edge="1">
                    <mxGeometry relative="1" as="geometry">
                        <mxPoint x="417" y="500" as="sourcePoint"/>
                        <mxPoint x="410" y="550" as="targetPoint"/>
                    </mxGeometry>
                </mxCell>
                <mxCell id="X5DR2xTNKRH_0ik1zWmi-3" value="Share" style="shape=rhombus;perimeter=rhombusPerimeter;whiteSpace=wrap;html=1;align=center;" parent="1" vertex="1">
                    <mxGeometry x="510" y="490" width="120" height="60" as="geometry"/>
                </mxCell>
                <mxCell id="X5DR2xTNKRH_0ik1zWmi-6" value="" style="endArrow=none;html=1;rounded=0;entryX=0;entryY=0.5;entryDx=0;entryDy=0;exitX=0.908;exitY=0.407;exitDx=0;exitDy=0;exitPerimeter=0;" parent="1" source="X5DR2xTNKRH_0ik1zWmi-3" target="X5DR2xTNKRH_0ik1zWmi-45" edge="1">
                    <mxGeometry relative="1" as="geometry">
                        <mxPoint x="572" y="487.5" as="sourcePoint"/>
                        <mxPoint x="647" y="480" as="targetPoint"/>
                    </mxGeometry>
                </mxCell>
                <mxCell id="X5DR2xTNKRH_0ik1zWmi-7" value="" style="endArrow=none;html=1;rounded=0;entryX=0.5;entryY=0;entryDx=0;entryDy=0;exitX=1;exitY=1;exitDx=0;exitDy=0;" parent="1" source="X5DR2xTNKRH_0ik1zWmi-3" target="X5DR2xTNKRH_0ik1zWmi-48" edge="1">
                    <mxGeometry relative="1" as="geometry">
                        <mxPoint x="610" y="515" as="sourcePoint"/>
                        <mxPoint x="647" y="570" as="targetPoint"/>
                    </mxGeometry>
                </mxCell>
                <mxCell id="X5DR2xTNKRH_0ik1zWmi-9" value="" style="endArrow=none;html=1;rounded=0;exitX=0;exitY=0;exitDx=0;exitDy=0;entryX=0.75;entryY=1;entryDx=0;entryDy=0;" parent="1" source="X5DR2xTNKRH_0ik1zWmi-3" target="63434HRSh4-HGVMlNltW-2" edge="1">
                    <mxGeometry relative="1" as="geometry">
                        <mxPoint x="417" y="500" as="sourcePoint"/>
                        <mxPoint x="417" y="410" as="targetPoint"/>
                    </mxGeometry>
                </mxCell>
                <mxCell id="X5DR2xTNKRH_0ik1zWmi-10" value="M" style="resizable=0;html=1;whiteSpace=wrap;align=right;verticalAlign=bottom;" parent="X5DR2xTNKRH_0ik1zWmi-9" connectable="0" vertex="1">
                    <mxGeometry x="1" relative="1" as="geometry">
                        <mxPoint y="20" as="offset"/>
                    </mxGeometry>
                </mxCell>
                <mxCell id="X5DR2xTNKRH_0ik1zWmi-11" value="" style="endArrow=none;html=1;rounded=0;exitX=0;exitY=1;exitDx=0;exitDy=0;entryX=0.75;entryY=0;entryDx=0;entryDy=0;" parent="1" source="X5DR2xTNKRH_0ik1zWmi-3" target="63434HRSh4-HGVMlNltW-14" edge="1">
                    <mxGeometry relative="1" as="geometry">
                        <mxPoint x="550" y="515" as="sourcePoint"/>
                        <mxPoint x="442" y="410" as="targetPoint"/>
                    </mxGeometry>
                </mxCell>
                <mxCell id="X5DR2xTNKRH_0ik1zWmi-12" value="N" style="resizable=0;html=1;whiteSpace=wrap;align=right;verticalAlign=bottom;" parent="X5DR2xTNKRH_0ik1zWmi-11" connectable="0" vertex="1">
                    <mxGeometry x="1" relative="1" as="geometry">
                        <mxPoint x="25" as="offset"/>
                    </mxGeometry>
                </mxCell>
                <mxCell id="X5DR2xTNKRH_0ik1zWmi-14" value="" style="endArrow=none;html=1;rounded=0;entryX=0;entryY=0.5;entryDx=0;entryDy=0;exitX=0.918;exitY=0.598;exitDx=0;exitDy=0;exitPerimeter=0;" parent="1" source="X5DR2xTNKRH_0ik1zWmi-3" target="X5DR2xTNKRH_0ik1zWmi-24" edge="1">
                    <mxGeometry relative="1" as="geometry">
                        <mxPoint x="630" y="530" as="sourcePoint"/>
                        <mxPoint x="667" y="520" as="targetPoint"/>
                    </mxGeometry>
                </mxCell>
                <mxCell id="X5DR2xTNKRH_0ik1zWmi-19" value="" style="endArrow=none;html=1;rounded=0;exitX=1;exitY=0.5;exitDx=0;exitDy=0;entryX=0;entryY=0.5;entryDx=0;entryDy=0;" parent="1" target="63434HRSh4-HGVMlNltW-14" edge="1">
                    <mxGeometry relative="1" as="geometry">
                        <mxPoint x="284" y="690" as="sourcePoint"/>
                        <mxPoint x="367" y="680" as="targetPoint"/>
                    </mxGeometry>
                </mxCell>
                <mxCell id="X5DR2xTNKRH_0ik1zWmi-22" value="Date&amp;amp;Time" style="ellipse;whiteSpace=wrap;html=1;align=center;" parent="1" vertex="1">
                    <mxGeometry x="234" y="720" width="100" height="40" as="geometry"/>
                </mxCell>
                <mxCell id="X5DR2xTNKRH_0ik1zWmi-24" value="Date&amp;amp;Time" style="ellipse;whiteSpace=wrap;html=1;align=center;" parent="1" vertex="1">
                    <mxGeometry x="680" y="530" width="100" height="40" as="geometry"/>
                </mxCell>
                <mxCell id="X5DR2xTNKRH_0ik1zWmi-27" value="" style="endArrow=none;html=1;rounded=0;exitX=1;exitY=0.5;exitDx=0;exitDy=0;entryX=0;entryY=0.5;entryDx=0;entryDy=0;" parent="1" source="63434HRSh4-HGVMlNltW-14" target="X5DR2xTNKRH_0ik1zWmi-56" edge="1">
                    <mxGeometry relative="1" as="geometry">
                        <mxPoint x="467" y="660" as="sourcePoint"/>
                        <mxPoint x="529.9999999999998" y="690" as="targetPoint"/>
                    </mxGeometry>
                </mxCell>
                <mxCell id="X5DR2xTNKRH_0ik1zWmi-28" value="FriendID" style="ellipse;whiteSpace=wrap;html=1;align=center;fontStyle=4;" parent="1" vertex="1">
                    <mxGeometry x="770" y="340" width="100" height="40" as="geometry"/>
                </mxCell>
                <mxCell id="X5DR2xTNKRH_0ik1zWmi-29" value="UserID" style="ellipse;whiteSpace=wrap;html=1;align=center;fontStyle=4;" parent="1" vertex="1">
                    <mxGeometry x="770" y="240" width="100" height="40" as="geometry"/>
                </mxCell>
                <mxCell id="X5DR2xTNKRH_0ik1zWmi-31" value="" style="endArrow=none;html=1;rounded=0;entryX=0.5;entryY=1;entryDx=0;entryDy=0;exitX=0.675;exitY=0.169;exitDx=0;exitDy=0;exitPerimeter=0;" parent="1" source="X5DR2xTNKRH_0ik1zWmi-3" target="X5DR2xTNKRH_0ik1zWmi-46" edge="1">
                    <mxGeometry relative="1" as="geometry">
                        <mxPoint x="610" y="515" as="sourcePoint"/>
                        <mxPoint x="547" y="454" as="targetPoint"/>
                    </mxGeometry>
                </mxCell>
                <mxCell id="X5DR2xTNKRH_0ik1zWmi-34" value="OverallDailySensation" style="whiteSpace=wrap;html=1;align=center;" parent="1" vertex="1">
                    <mxGeometry x="140" y="490" width="120" height="50" as="geometry"/>
                </mxCell>
                <mxCell id="X5DR2xTNKRH_0ik1zWmi-35" value="" style="shape=rhombus;perimeter=rhombusPerimeter;whiteSpace=wrap;html=1;align=center;" parent="1" vertex="1">
                    <mxGeometry x="284" y="450" width="59" height="35" as="geometry"/>
                </mxCell>
                <mxCell id="X5DR2xTNKRH_0ik1zWmi-36" value="" style="shape=rhombus;perimeter=rhombusPerimeter;whiteSpace=wrap;html=1;align=center;" parent="1" vertex="1">
                    <mxGeometry x="284" y="550" width="59" height="35" as="geometry"/>
                </mxCell>
                <mxCell id="X5DR2xTNKRH_0ik1zWmi-37" value="" style="endArrow=none;html=1;rounded=0;exitX=1;exitY=0.5;exitDx=0;exitDy=0;entryX=0.25;entryY=1;entryDx=0;entryDy=0;" parent="1" source="X5DR2xTNKRH_0ik1zWmi-35" target="63434HRSh4-HGVMlNltW-2" edge="1">
                    <mxGeometry relative="1" as="geometry">
                        <mxPoint x="360" y="420" as="sourcePoint"/>
                        <mxPoint x="520" y="420" as="targetPoint"/>
                    </mxGeometry>
                </mxCell>
                <mxCell id="X5DR2xTNKRH_0ik1zWmi-38" value="1" style="resizable=0;html=1;whiteSpace=wrap;align=right;verticalAlign=bottom;" parent="X5DR2xTNKRH_0ik1zWmi-37" connectable="0" vertex="1">
                    <mxGeometry x="1" relative="1" as="geometry">
                        <mxPoint x="-2" y="30" as="offset"/>
                    </mxGeometry>
                </mxCell>
                <mxCell id="X5DR2xTNKRH_0ik1zWmi-39" value="" style="endArrow=none;html=1;rounded=0;exitX=1;exitY=0;exitDx=0;exitDy=0;entryX=0;entryY=0.5;entryDx=0;entryDy=0;" parent="1" source="X5DR2xTNKRH_0ik1zWmi-34" target="X5DR2xTNKRH_0ik1zWmi-35" edge="1">
                    <mxGeometry relative="1" as="geometry">
                        <mxPoint x="417" y="660" as="sourcePoint"/>
                        <mxPoint x="417" y="540" as="targetPoint"/>
                    </mxGeometry>
                </mxCell>
                <mxCell id="X5DR2xTNKRH_0ik1zWmi-40" value="N" style="resizable=0;html=1;whiteSpace=wrap;align=left;verticalAlign=bottom;" parent="1" connectable="0" vertex="1">
                    <mxGeometry x="260" y="500" as="geometry">
                        <mxPoint x="-5" y="-14" as="offset"/>
                    </mxGeometry>
                </mxCell>
                <mxCell id="X5DR2xTNKRH_0ik1zWmi-41" value="" style="endArrow=none;html=1;rounded=0;exitX=1;exitY=1;exitDx=0;exitDy=0;entryX=0;entryY=0.5;entryDx=0;entryDy=0;" parent="1" source="X5DR2xTNKRH_0ik1zWmi-34" target="X5DR2xTNKRH_0ik1zWmi-36" edge="1">
                    <mxGeometry relative="1" as="geometry">
                        <mxPoint x="353" y="477" as="sourcePoint"/>
                        <mxPoint x="392" y="410" as="targetPoint"/>
                    </mxGeometry>
                </mxCell>
                <mxCell id="X5DR2xTNKRH_0ik1zWmi-42" value="1" style="resizable=0;html=1;whiteSpace=wrap;align=right;verticalAlign=bottom;" parent="X5DR2xTNKRH_0ik1zWmi-41" connectable="0" vertex="1">
                    <mxGeometry x="1" relative="1" as="geometry">
                        <mxPoint x="-24" as="offset"/>
                    </mxGeometry>
                </mxCell>
                <mxCell id="X5DR2xTNKRH_0ik1zWmi-43" value="" style="endArrow=none;html=1;rounded=0;exitX=1;exitY=0.5;exitDx=0;exitDy=0;entryX=0.25;entryY=0;entryDx=0;entryDy=0;" parent="1" source="X5DR2xTNKRH_0ik1zWmi-36" target="63434HRSh4-HGVMlNltW-14" edge="1">
                    <mxGeometry relative="1" as="geometry">
                        <mxPoint x="270" y="510" as="sourcePoint"/>
                        <mxPoint x="294" y="477" as="targetPoint"/>
                    </mxGeometry>
                </mxCell>
                <mxCell id="X5DR2xTNKRH_0ik1zWmi-44" value="N" style="resizable=0;html=1;whiteSpace=wrap;align=left;verticalAlign=bottom;" parent="1" connectable="0" vertex="1">
                    <mxGeometry x="360" y="650" as="geometry"/>
                </mxCell>
                <mxCell id="X5DR2xTNKRH_0ik1zWmi-45" value="DiaryID" style="ellipse;whiteSpace=wrap;html=1;align=center;fontStyle=4;" parent="1" vertex="1">
                    <mxGeometry x="680" y="480" width="100" height="40" as="geometry"/>
                </mxCell>
                <mxCell id="X5DR2xTNKRH_0ik1zWmi-46" value="UserID" style="ellipse;whiteSpace=wrap;html=1;align=center;fontStyle=4;" parent="1" vertex="1">
                    <mxGeometry x="620" y="435" width="100" height="40" as="geometry"/>
                </mxCell>
                <mxCell id="X5DR2xTNKRH_0ik1zWmi-48" value="&lt;span style=&quot;border-bottom: 1px dotted&quot;&gt;FriendID&lt;/span&gt;" style="ellipse;whiteSpace=wrap;html=1;align=center;" parent="1" vertex="1">
                    <mxGeometry x="597" y="570" width="100" height="40" as="geometry"/>
                </mxCell>
                <mxCell id="X5DR2xTNKRH_0ik1zWmi-50" value="&lt;span style=&quot;border-bottom: 1px dotted&quot;&gt;UserID&lt;/span&gt;" style="ellipse;whiteSpace=wrap;html=1;align=center;" parent="1" vertex="1">
                    <mxGeometry x="184" y="670" width="100" height="40" as="geometry"/>
                </mxCell>
                <mxCell id="X5DR2xTNKRH_0ik1zWmi-51" value="UserID" style="ellipse;whiteSpace=wrap;html=1;align=center;fontStyle=4;" parent="1" vertex="1">
                    <mxGeometry x="30" y="435" width="100" height="40" as="geometry"/>
                </mxCell>
                <mxCell id="X5DR2xTNKRH_0ik1zWmi-52" value="DiaryID" style="ellipse;whiteSpace=wrap;html=1;align=center;fontStyle=4;" parent="1" vertex="1">
                    <mxGeometry y="495" width="100" height="40" as="geometry"/>
                </mxCell>
                <mxCell id="X5DR2xTNKRH_0ik1zWmi-53" value="" style="endArrow=none;html=1;rounded=0;exitX=1;exitY=1;exitDx=0;exitDy=0;entryX=0;entryY=0;entryDx=0;entryDy=0;" parent="1" source="X5DR2xTNKRH_0ik1zWmi-51" target="X5DR2xTNKRH_0ik1zWmi-34" edge="1">
                    <mxGeometry relative="1" as="geometry">
                        <mxPoint x="90" y="550" as="sourcePoint"/>
                        <mxPoint x="163" y="570" as="targetPoint"/>
                    </mxGeometry>
                </mxCell>
                <mxCell id="X5DR2xTNKRH_0ik1zWmi-54" value="" style="endArrow=none;html=1;rounded=0;exitX=1;exitY=0.5;exitDx=0;exitDy=0;entryX=0;entryY=0.5;entryDx=0;entryDy=0;" parent="1" source="X5DR2xTNKRH_0ik1zWmi-52" target="X5DR2xTNKRH_0ik1zWmi-34" edge="1">
                    <mxGeometry relative="1" as="geometry">
                        <mxPoint x="125" y="479" as="sourcePoint"/>
                        <mxPoint x="150" y="500" as="targetPoint"/>
                    </mxGeometry>
                </mxCell>
                <mxCell id="X5DR2xTNKRH_0ik1zWmi-56" value="AIFeeling" style="ellipse;whiteSpace=wrap;html=1;align=center;" parent="1" vertex="1">
                    <mxGeometry x="530" y="670" width="100" height="40" as="geometry"/>
                </mxCell>
                <mxCell id="X5DR2xTNKRH_0ik1zWmi-57" value="OverallFeeling" style="ellipse;whiteSpace=wrap;html=1;align=center;" parent="1" vertex="1">
                    <mxGeometry y="540" width="100" height="40" as="geometry"/>
                </mxCell>
                <mxCell id="X5DR2xTNKRH_0ik1zWmi-58" value="" style="endArrow=none;html=1;rounded=0;exitX=0;exitY=1;exitDx=0;exitDy=0;entryX=1;entryY=0;entryDx=0;entryDy=0;" parent="1" source="X5DR2xTNKRH_0ik1zWmi-34" target="X5DR2xTNKRH_0ik1zWmi-57" edge="1">
                    <mxGeometry relative="1" as="geometry">
                        <mxPoint x="467" y="660" as="sourcePoint"/>
                        <mxPoint x="530" y="640" as="targetPoint"/>
                    </mxGeometry>
                </mxCell>
                <mxCell id="X5DR2xTNKRH_0ik1zWmi-59" value="date&amp;amp;Time" style="ellipse;whiteSpace=wrap;html=1;align=center;" parent="1" vertex="1">
                    <mxGeometry x="150" y="570" width="100" height="40" as="geometry"/>
                </mxCell>
                <mxCell id="X5DR2xTNKRH_0ik1zWmi-60" value="" style="endArrow=none;html=1;rounded=0;exitX=0.5;exitY=1;exitDx=0;exitDy=0;entryX=0.5;entryY=0;entryDx=0;entryDy=0;" parent="1" source="X5DR2xTNKRH_0ik1zWmi-34" target="X5DR2xTNKRH_0ik1zWmi-59" edge="1">
                    <mxGeometry relative="1" as="geometry">
                        <mxPoint x="150" y="550" as="sourcePoint"/>
                        <mxPoint x="125" y="576" as="targetPoint"/>
                    </mxGeometry>
                </mxCell>
                <mxCell id="xrmQ-46f7oe39yd-RXYb-1" value="Do" style="shape=rhombus;perimeter=rhombusPerimeter;whiteSpace=wrap;html=1;align=center;" parent="1" vertex="1">
                    <mxGeometry x="590" y="210" width="80" height="40" as="geometry"/>
                </mxCell>
                <mxCell id="xrmQ-46f7oe39yd-RXYb-2" value="" style="endArrow=none;html=1;rounded=0;entryX=1;entryY=0;entryDx=0;entryDy=0;exitX=0;exitY=0.5;exitDx=0;exitDy=0;" parent="1" source="xrmQ-46f7oe39yd-RXYb-1" target="63434HRSh4-HGVMlNltW-2" edge="1">
                    <mxGeometry relative="1" as="geometry">
                        <mxPoint x="270" y="370" as="sourcePoint"/>
                        <mxPoint x="430" y="370" as="targetPoint"/>
                    </mxGeometry>
                </mxCell>
                <mxCell id="xrmQ-46f7oe39yd-RXYb-3" value="1" style="resizable=0;html=1;whiteSpace=wrap;align=right;verticalAlign=bottom;" parent="xrmQ-46f7oe39yd-RXYb-2" connectable="0" vertex="1">
                    <mxGeometry x="1" relative="1" as="geometry"/>
                </mxCell>
                <mxCell id="xrmQ-46f7oe39yd-RXYb-4" value="questionnaire" style="whiteSpace=wrap;html=1;align=center;" parent="1" vertex="1">
                    <mxGeometry x="643.62" y="100" width="100" height="40" as="geometry"/>
                </mxCell>
                <mxCell id="xrmQ-46f7oe39yd-RXYb-5" value="" style="endArrow=none;html=1;rounded=0;exitX=1;exitY=0.5;exitDx=0;exitDy=0;entryX=0.5;entryY=1;entryDx=0;entryDy=0;" parent="1" source="xrmQ-46f7oe39yd-RXYb-1" target="xrmQ-46f7oe39yd-RXYb-4" edge="1">
                    <mxGeometry relative="1" as="geometry">
                        <mxPoint x="587" y="325" as="sourcePoint"/>
                        <mxPoint x="747" y="325" as="targetPoint"/>
                    </mxGeometry>
                </mxCell>
                <mxCell id="xrmQ-46f7oe39yd-RXYb-6" value="N" style="resizable=0;html=1;whiteSpace=wrap;align=right;verticalAlign=bottom;" parent="xrmQ-46f7oe39yd-RXYb-5" connectable="0" vertex="1">
                    <mxGeometry x="1" relative="1" as="geometry">
                        <mxPoint x="-10" y="20" as="offset"/>
                    </mxGeometry>
                </mxCell>
                <mxCell id="xrmQ-46f7oe39yd-RXYb-9" value="Date&amp;amp;Time" style="ellipse;whiteSpace=wrap;html=1;align=center;" parent="1" vertex="1">
                    <mxGeometry x="643.62" width="100" height="40" as="geometry"/>
                </mxCell>
                <mxCell id="xrmQ-46f7oe39yd-RXYb-10" value="&lt;span data-teams=&quot;true&quot;&gt;Q2test_score&lt;/span&gt;" style="ellipse;whiteSpace=wrap;html=1;align=center;" parent="1" vertex="1">
                    <mxGeometry x="733" y="30" width="100" height="40" as="geometry"/>
                </mxCell>
                <mxCell id="xrmQ-46f7oe39yd-RXYb-12" value="" style="endArrow=none;html=1;rounded=0;exitX=1;exitY=0.5;exitDx=0;exitDy=0;entryX=0;entryY=0.5;entryDx=0;entryDy=0;" parent="1" source="77Y5PrpxeiiLzukYwDQl-5" target="xrmQ-46f7oe39yd-RXYb-4" edge="1">
                    <mxGeometry relative="1" as="geometry">
                        <mxPoint x="610" y="120" as="sourcePoint"/>
                        <mxPoint x="533" y="190" as="targetPoint"/>
                    </mxGeometry>
                </mxCell>
                <mxCell id="xrmQ-46f7oe39yd-RXYb-13" value="" style="endArrow=none;html=1;rounded=0;exitX=1;exitY=1;exitDx=0;exitDy=0;entryX=0.25;entryY=0;entryDx=0;entryDy=0;" parent="1" source="77Y5PrpxeiiLzukYwDQl-4" target="xrmQ-46f7oe39yd-RXYb-4" edge="1">
                    <mxGeometry relative="1" as="geometry">
                        <mxPoint x="620" y="130" as="sourcePoint"/>
                        <mxPoint x="654" y="130" as="targetPoint"/>
                    </mxGeometry>
                </mxCell>
                <mxCell id="xrmQ-46f7oe39yd-RXYb-14" value="" style="endArrow=none;html=1;rounded=0;exitX=0.5;exitY=1;exitDx=0;exitDy=0;entryX=0.75;entryY=0;entryDx=0;entryDy=0;" parent="1" source="xrmQ-46f7oe39yd-RXYb-10" target="xrmQ-46f7oe39yd-RXYb-4" edge="1">
                    <mxGeometry relative="1" as="geometry">
                        <mxPoint x="623" y="80" as="sourcePoint"/>
                        <mxPoint x="679" y="110" as="targetPoint"/>
                    </mxGeometry>
                </mxCell>
                <mxCell id="xrmQ-46f7oe39yd-RXYb-16" value="&lt;span data-teams=&quot;true&quot;&gt;Q9test_score&lt;/span&gt;" style="ellipse;whiteSpace=wrap;html=1;align=center;" parent="1" vertex="1">
                    <mxGeometry x="770" y="100" width="100" height="40" as="geometry"/>
                </mxCell>
                <mxCell id="xrmQ-46f7oe39yd-RXYb-17" value="&lt;span data-teams=&quot;true&quot;&gt;Q8test_score&lt;/span&gt;" style="ellipse;whiteSpace=wrap;html=1;align=center;" parent="1" vertex="1">
                    <mxGeometry x="733" y="160" width="100" height="40" as="geometry"/>
                </mxCell>
                <mxCell id="xrmQ-46f7oe39yd-RXYb-18" value="" style="endArrow=none;html=1;rounded=0;exitX=0;exitY=0.5;exitDx=0;exitDy=0;entryX=1;entryY=0.5;entryDx=0;entryDy=0;" parent="1" source="xrmQ-46f7oe39yd-RXYb-16" target="xrmQ-46f7oe39yd-RXYb-4" edge="1">
                    <mxGeometry relative="1" as="geometry">
                        <mxPoint x="783" y="80" as="sourcePoint"/>
                        <mxPoint x="729" y="110" as="targetPoint"/>
                    </mxGeometry>
                </mxCell>
                <mxCell id="xrmQ-46f7oe39yd-RXYb-19" value="" style="endArrow=none;html=1;rounded=0;exitX=0;exitY=0;exitDx=0;exitDy=0;entryX=0.75;entryY=1;entryDx=0;entryDy=0;" parent="1" source="xrmQ-46f7oe39yd-RXYb-17" target="xrmQ-46f7oe39yd-RXYb-4" edge="1">
                    <mxGeometry relative="1" as="geometry">
                        <mxPoint x="677" y="210" as="sourcePoint"/>
                        <mxPoint x="651" y="210" as="targetPoint"/>
                    </mxGeometry>
                </mxCell>
                <mxCell id="77Y5PrpxeiiLzukYwDQl-2" value="" style="endArrow=none;html=1;rounded=0;exitX=0.5;exitY=1;exitDx=0;exitDy=0;entryX=0.5;entryY=0;entryDx=0;entryDy=0;" parent="1" source="xrmQ-46f7oe39yd-RXYb-9" target="xrmQ-46f7oe39yd-RXYb-4" edge="1">
                    <mxGeometry relative="1" as="geometry">
                        <mxPoint x="793" y="80" as="sourcePoint"/>
                        <mxPoint x="729" y="110" as="targetPoint"/>
                    </mxGeometry>
                </mxCell>
                <mxCell id="77Y5PrpxeiiLzukYwDQl-4" value="&lt;span style=&quot;border-bottom: 1px dotted&quot;&gt;UserID&lt;/span&gt;" style="ellipse;whiteSpace=wrap;html=1;align=center;" parent="1" vertex="1">
                    <mxGeometry x="543" y="30" width="100" height="40" as="geometry"/>
                </mxCell>
                <mxCell id="77Y5PrpxeiiLzukYwDQl-5" value="ID" style="ellipse;whiteSpace=wrap;html=1;align=center;fontStyle=4;" parent="1" vertex="1">
                    <mxGeometry x="510" y="100" width="100" height="40" as="geometry"/>
                </mxCell>
                <mxCell id="eOueT2LflCG8BqQuPxKw-1" value="OverallAIFeeling" style="ellipse;whiteSpace=wrap;html=1;align=center;" parent="1" vertex="1">
                    <mxGeometry x="40" y="585" width="100" height="40" as="geometry"/>
                </mxCell>
                <mxCell id="eOueT2LflCG8BqQuPxKw-2" value="" style="endArrow=none;html=1;rounded=0;exitX=0.25;exitY=1;exitDx=0;exitDy=0;entryX=0.7;entryY=0.025;entryDx=0;entryDy=0;entryPerimeter=0;" parent="1" source="X5DR2xTNKRH_0ik1zWmi-34" target="eOueT2LflCG8BqQuPxKw-1" edge="1">
                    <mxGeometry relative="1" as="geometry">
                        <mxPoint x="150" y="550" as="sourcePoint"/>
                        <mxPoint x="95" y="556" as="targetPoint"/>
                    </mxGeometry>
                </mxCell>
                <mxCell id="Vt23moZkWO5sE17nUQzC-2" value="" style="endArrow=none;html=1;rounded=0;exitX=1;exitY=0.5;exitDx=0;exitDy=0;entryX=0;entryY=0.5;entryDx=0;entryDy=0;" parent="1" source="oerCxMAeKZyAwaHV0BJi-61" target="oerCxMAeKZyAwaHV0BJi-22" edge="1">
                    <mxGeometry relative="1" as="geometry">
                        <mxPoint x="830" y="350" as="sourcePoint"/>
                        <mxPoint x="770" y="330" as="targetPoint"/>
                    </mxGeometry>
                </mxCell>
                <mxCell id="Vt23moZkWO5sE17nUQzC-3" value="" style="endArrow=none;html=1;rounded=0;exitX=1;exitY=0.5;exitDx=0;exitDy=0;entryX=0;entryY=0.5;entryDx=0;entryDy=0;" parent="1" source="63434HRSh4-HGVMlNltW-2" target="oerCxMAeKZyAwaHV0BJi-61" edge="1">
                    <mxGeometry relative="1" as="geometry">
                        <mxPoint x="583" y="370" as="sourcePoint"/>
                        <mxPoint x="670" y="320" as="targetPoint"/>
                    </mxGeometry>
                </mxCell>
                <mxCell id="Vt23moZkWO5sE17nUQzC-4" value="" style="endArrow=none;html=1;rounded=0;exitX=0.5;exitY=0;exitDx=0;exitDy=0;entryX=0.5;entryY=1;entryDx=0;entryDy=0;" parent="1" source="X5DR2xTNKRH_0ik1zWmi-3" target="oerCxMAeKZyAwaHV0BJi-22" edge="1">
                    <mxGeometry relative="1" as="geometry">
                        <mxPoint x="593" y="380" as="sourcePoint"/>
                        <mxPoint x="680" y="330" as="targetPoint"/>
                    </mxGeometry>
                </mxCell>
                <mxCell id="Vt23moZkWO5sE17nUQzC-8" value="N" style="resizable=0;html=1;whiteSpace=wrap;align=right;verticalAlign=bottom;" parent="1" connectable="0" vertex="1">
                    <mxGeometry x="669.9973999139501" y="360.00313898051587" as="geometry"/>
                </mxCell>
                <mxCell id="Vt23moZkWO5sE17nUQzC-9" value="N" style="resizable=0;html=1;whiteSpace=wrap;align=right;verticalAlign=bottom;" parent="1" connectable="0" vertex="1">
                    <mxGeometry x="609.9973999139501" y="325.00313898051587" as="geometry"/>
                </mxCell>
                <mxCell id="Vt23moZkWO5sE17nUQzC-10" value="M" style="resizable=0;html=1;whiteSpace=wrap;align=right;verticalAlign=bottom;" parent="1" connectable="0" vertex="1">
                    <mxGeometry x="471.0032664121567" y="379.99734234515233" as="geometry"/>
                </mxCell>
            </root>
        </mxGraphModel>
    </diagram>
</mxfile>